<svg xmlns="http://www.w3.org/2000/svg" xmlns:xlink="http://www.w3.org/1999/xlink" width="500" zoomAndPan="magnify" viewBox="0 0 375 374.999991" height="500" preserveAspectRatio="xMidYMid meet" version="1.0"><defs><clipPath id="fbf2dd75dc"><path d="M 120.046875 106.839844 L 255 106.839844 L 255 268.089844 L 120.046875 268.089844 Z M 120.046875 106.839844 " clip-rule="nonzero"/></clipPath></defs><g clip-path="url(#fbf2dd75dc)"><path fill="#000000" d="M 174.496094 265.773438 L 212.304688 243.582031 C 213.238281 242.605469 214.15625 241.609375 215.039062 240.585938 L 170.570312 266.6875 C 171.890625 266.414062 173.199219 266.109375 174.496094 265.773438 Z M 146.835938 124.128906 L 154.265625 119.761719 L 154.273438 119.765625 L 171.574219 109.617188 C 172.140625 109.742188 172.707031 109.871094 173.273438 110.007812 L 155.300781 120.558594 L 157.992188 122.632812 L 177.53125 111.167969 C 178.046875 111.320312 178.5625 111.484375 179.078125 111.648438 L 159.015625 123.421875 L 161.371094 125.238281 L 192.691406 106.855469 C 193.328125 107.097656 193.953125 107.34375 194.582031 107.597656 L 161.644531 126.929688 L 161.644531 130.585938 L 187.972656 115.132812 C 188.414062 115.335938 188.851562 115.542969 189.289062 115.753906 L 161.644531 131.976562 L 161.644531 135.632812 L 192.609375 117.457031 C 193.019531 117.679688 193.421875 117.910156 193.824219 118.136719 L 161.644531 137.023438 L 161.644531 139.289062 L 180.914062 127.960938 L 181.953125 128.761719 L 196.917969 119.980469 L 198.050781 120.703125 L 182.976562 129.550781 L 185.3125 131.351562 L 217.5625 112.421875 C 218.042969 112.765625 218.519531 113.113281 218.992188 113.460938 L 186.695312 132.417969 L 188.292969 133.648438 L 188.292969 135.136719 L 204.683594 125.515625 C 205.015625 125.78125 205.347656 126.054688 205.675781 126.324219 L 188.292969 136.527344 L 188.292969 140.183594 L 208.191406 128.503906 C 208.5 128.785156 208.804688 129.070312 209.109375 129.355469 L 161.644531 157.214844 L 161.644531 160.875 L 211.457031 131.636719 C 211.746094 131.929688 212.039062 132.222656 212.320312 132.519531 L 161.644531 162.265625 L 161.644531 165.921875 L 214.503906 134.894531 L 215.308594 135.816406 L 161.644531 167.3125 L 161.644531 170.734375 L 228.136719 131.707031 L 229.003906 132.824219 L 161.644531 172.359375 L 161.644531 175.78125 L 231.265625 134.917969 C 231.535156 135.300781 231.800781 135.6875 232.066406 136.074219 L 161.644531 177.40625 L 161.644531 181.066406 L 222.382812 145.417969 C 222.59375 145.753906 222.808594 146.09375 223.015625 146.433594 L 161.644531 182.457031 L 161.644531 185.664062 L 247.558594 135.238281 L 248.320312 136.632812 L 161.644531 187.503906 L 161.644531 191.160156 L 226.609375 153.03125 C 226.785156 153.390625 226.957031 153.753906 227.125 154.117188 L 161.644531 192.550781 L 161.644531 196.207031 L 228.414062 157.019531 L 228.871094 158.140625 L 161.644531 197.597656 L 161.644531 200.910156 L 249.109375 149.574219 C 249.28125 150.054688 249.453125 150.53125 249.617188 151.011719 L 161.644531 202.648438 L 161.644531 206.304688 L 231.382812 165.371094 C 231.5 165.769531 231.613281 166.164062 231.722656 166.5625 L 161.644531 207.695312 L 161.644531 211.351562 L 232.539062 169.742188 C 232.632812 170.152344 232.722656 170.5625 232.808594 170.972656 L 161.644531 212.742188 L 161.644531 216.398438 L 233.449219 174.253906 L 233.664062 175.519531 L 161.644531 217.789062 L 161.644531 221.320312 L 241.46875 174.46875 L 241.621094 175.898438 L 161.644531 222.839844 L 161.644531 226.496094 L 234.519531 183.722656 C 234.542969 184.171875 234.558594 184.628906 234.574219 185.082031 L 161.644531 227.886719 L 161.644531 231.195312 L 254.910156 176.457031 C 254.902344 177.039062 254.902344 177.621094 254.886719 178.207031 L 161.644531 232.933594 L 161.644531 236.589844 L 234.421875 193.875 C 234.386719 194.363281 234.34375 194.851562 234.300781 195.335938 L 161.644531 237.980469 L 161.644531 241.355469 L 250.171875 189.394531 C 250.085938 190.007812 250 190.621094 249.902344 191.230469 L 161.644531 243.03125 L 161.644531 246.398438 L 249.339844 194.929688 C 249.199219 195.574219 249.058594 196.21875 248.90625 196.859375 L 161.644531 248.078125 L 161.644531 251.734375 L 231.347656 210.824219 C 231.179688 211.390625 231.007812 211.957031 230.828125 212.519531 L 161.644531 253.125 L 161.644531 256.78125 L 229.195312 217.132812 C 228.957031 217.746094 228.710938 218.351562 228.457031 218.957031 L 161.644531 258.171875 L 161.644531 261.597656 L 238.335938 216.585938 C 237.941406 217.367188 237.539062 218.148438 237.125 218.917969 L 161.644531 263.21875 L 161.644531 266.878906 L 235.273438 223.664062 C 234.660156 224.605469 234.03125 225.539062 233.390625 226.457031 L 162.769531 267.910156 L 161.644531 268.011719 L 161.644531 268 C 161.222656 268.039062 160.804688 268.082031 160.378906 268.113281 L 160.378906 156.628906 L 154.265625 151.902344 L 154.265625 263.890625 L 153 261.941406 L 153 150.324219 L 179.648438 134.65625 L 179.648438 130.167969 L 153 145.832031 L 153 121.96875 L 148.101562 124.847656 L 148.101562 148.714844 L 121.449219 164.375 L 121.449219 168.867188 L 148.101562 153.203125 L 148.101562 254.371094 L 146.835938 252.421875 L 146.835938 165.433594 L 127.566406 176.761719 L 120.1875 171.074219 L 120.1875 163.65625 L 146.835938 147.992188 Z M 154.265625 121.355469 L 154.265625 143.625 L 160.378906 140.03125 L 160.378906 126.066406 Z M 180.914062 129.554688 L 180.914062 134.640625 L 187.027344 139.367188 L 187.027344 134.265625 Z M 180.914062 135.378906 L 154.265625 151.042969 L 154.707031 150.785156 L 161 155.644531 L 186.675781 140.554688 L 180.382812 135.691406 Z M 146.835938 163.96875 L 146.835938 155.410156 L 120.1875 171.074219 L 121.449219 170.332031 L 121.449219 170.453125 L 127.664062 175.242188 Z M 153.59375 111.460938 L 159.625 107.921875 C 158.902344 107.875 158.179688 107.839844 157.453125 107.808594 L 153.59375 110.070312 Z M 153.59375 116.511719 L 166.859375 108.726562 C 166.226562 108.625 165.59375 108.535156 164.957031 108.449219 L 153.59375 115.121094 L 153.59375 116.511719 " fill-opacity="1" fill-rule="evenodd"/></g></svg>